<svg width="170" height="92" viewBox="0 0 170 92" fill="none" xmlns="http://www.w3.org/2000/svg">
<rect x="0.5" y="0.5" width="169" height="91" rx="3.5" stroke="#AFB1B8"/>
<path d="M56.1462 37.1028H56.1433C53.7453 37.1028 51.8013 38.8304 51.8013 40.9615V40.964C51.8013 43.0951 53.7453 44.8227 56.1433 44.8227H56.1462C58.5442 44.8227 60.4882 43.0951 60.4882 40.964V40.9615C60.4882 38.8304 58.5442 37.1028 56.1462 37.1028Z" fill="#AFB1B8"/>
<path d="M88.195 35.8693C88.1882 32.9093 86.8623 30.0722 84.5074 27.979C82.1525 25.8857 78.9605 24.7067 75.6298 24.7V24.7C72.2981 24.7053 69.1045 25.8837 66.7484 27.9772C64.3923 30.0706 63.0656 32.9084 63.0587 35.8693V52.1921C63.0587 52.1921 88.1922 49.7044 88.195 35.8718V35.8693Z" fill="#AFB1B8"/>
<path d="M43 57.5495C43.0061 59.6091 43.9292 61.5828 45.5676 63.0394C47.2061 64.496 49.4267 65.317 51.7442 65.3231C54.0612 65.317 56.2814 64.4963 57.9198 63.0403C59.5581 61.5843 60.4816 59.6112 60.4884 57.552V46.1943C60.4884 46.1943 43 47.9266 43 57.5495ZM51.7442 59.5844C51.2913 59.5844 50.8486 59.4651 50.4721 59.2415C50.0955 59.0179 49.802 58.7001 49.6287 58.3282C49.4554 57.9564 49.41 57.5472 49.4984 57.1525C49.5867 56.7577 49.8048 56.3951 50.1251 56.1105C50.4453 55.8259 50.8533 55.6321 51.2975 55.5536C51.7417 55.4751 52.2021 55.5154 52.6205 55.6694C53.0389 55.8234 53.3965 56.0843 53.6481 56.4189C53.8997 56.7535 54.034 57.147 54.034 57.5495C54.0351 57.8173 53.9767 58.0828 53.8622 58.3306C53.7476 58.5783 53.5791 58.8036 53.3664 58.9933C53.1536 59.1831 52.9008 59.3337 52.6225 59.4364C52.3441 59.5392 52.0456 59.5921 51.7442 59.5921V59.5844Z" fill="#AFB1B8"/>
<path d="M67.7302 55.9413V60.2069H66.8513V55.9413H67.7302ZM69.4294 57.7635V58.4491H67.49V57.7635H69.4294ZM69.6345 55.9413V56.6298H67.49V55.9413H69.6345ZM73.6482 57.9745V58.1766C73.6482 58.5009 73.6042 58.7919 73.5163 59.0497C73.4284 59.3075 73.3044 59.5272 73.1443 59.7089C72.9841 59.8885 72.7927 60.0262 72.57 60.1219C72.3493 60.2177 72.1042 60.2655 71.8347 60.2655C71.5671 60.2655 71.322 60.2177 71.0993 60.1219C70.8786 60.0262 70.6872 59.8885 70.5251 59.7089C70.363 59.5272 70.237 59.3075 70.1472 59.0497C70.0593 58.7919 70.0154 58.5009 70.0154 58.1766V57.9745C70.0154 57.6483 70.0593 57.3573 70.1472 57.1014C70.2351 56.8436 70.3591 56.6239 70.5193 56.4423C70.6814 56.2606 70.8728 56.1219 71.0935 56.0262C71.3161 55.9305 71.5612 55.8827 71.8288 55.8827C72.0984 55.8827 72.3435 55.9305 72.5642 56.0262C72.7868 56.1219 72.9782 56.2606 73.1384 56.4423C73.3005 56.6239 73.4255 56.8436 73.5134 57.1014C73.6032 57.3573 73.6482 57.6483 73.6482 57.9745ZM72.7605 58.1766V57.9686C72.7605 57.7421 72.74 57.5428 72.6989 57.371C72.6579 57.1991 72.5974 57.0546 72.5173 56.9374C72.4372 56.8202 72.3396 56.7323 72.2243 56.6737C72.1091 56.6132 71.9773 56.5829 71.8288 56.5829C71.6804 56.5829 71.5486 56.6132 71.4333 56.6737C71.32 56.7323 71.2234 56.8202 71.1433 56.9374C71.0652 57.0546 71.0056 57.1991 70.9646 57.371C70.9236 57.5428 70.903 57.7421 70.903 57.9686V58.1766C70.903 58.4012 70.9236 58.6005 70.9646 58.7743C71.0056 58.9462 71.0661 59.0917 71.1462 59.2108C71.2263 59.328 71.3239 59.4169 71.4392 59.4774C71.5544 59.538 71.6862 59.5682 71.8347 59.5682C71.9831 59.5682 72.115 59.538 72.2302 59.4774C72.3454 59.4169 72.4421 59.328 72.5202 59.2108C72.5984 59.0917 72.6579 58.9462 72.6989 58.7743C72.74 58.6005 72.7605 58.4012 72.7605 58.1766ZM76.5017 59.0907C76.5017 59.0145 76.49 58.9462 76.4665 58.8856C76.445 58.8231 76.404 58.7665 76.3435 58.7157C76.2829 58.663 76.198 58.6112 76.0886 58.5604C75.9792 58.5096 75.8376 58.4569 75.6638 58.4022C75.4704 58.3397 75.2868 58.2694 75.113 58.1913C74.9411 58.1132 74.7888 58.0223 74.656 57.9188C74.5251 57.8134 74.4216 57.6913 74.3454 57.5526C74.2712 57.4139 74.2341 57.2528 74.2341 57.0692C74.2341 56.8915 74.2732 56.7303 74.3513 56.5858C74.4294 56.4393 74.5388 56.3143 74.6794 56.2108C74.82 56.1053 74.9861 56.0243 75.1775 55.9677C75.3708 55.911 75.5827 55.8827 75.8132 55.8827C76.1277 55.8827 76.4021 55.9393 76.6364 56.0526C76.8708 56.1659 77.0525 56.3212 77.1814 56.5184C77.3122 56.7157 77.3777 56.9413 77.3777 57.1952H76.5046C76.5046 57.0702 76.4782 56.9608 76.4255 56.8671C76.3747 56.7714 76.2966 56.6962 76.1911 56.6415C76.0876 56.5868 75.9568 56.5594 75.7986 56.5594C75.6462 56.5594 75.5193 56.5829 75.4177 56.6298C75.3161 56.6747 75.24 56.7362 75.1892 56.8143C75.1384 56.8905 75.113 56.9764 75.113 57.0721C75.113 57.1444 75.1306 57.2098 75.1657 57.2684C75.2029 57.327 75.2575 57.3817 75.3298 57.4325C75.4021 57.4833 75.4909 57.5311 75.5964 57.576C75.7019 57.621 75.8239 57.6649 75.9626 57.7079C76.195 57.7782 76.3991 57.8573 76.5749 57.9452C76.7527 58.0331 76.9011 58.1317 77.0202 58.2411C77.1394 58.3505 77.2292 58.4745 77.2898 58.6132C77.3503 58.7518 77.3806 58.9091 77.3806 59.0848C77.3806 59.2704 77.3445 59.4364 77.2722 59.5829C77.1999 59.7294 77.0954 59.8534 76.9587 59.955C76.822 60.0565 76.6589 60.1337 76.4695 60.1864C76.28 60.2391 76.0681 60.2655 75.8337 60.2655C75.6228 60.2655 75.4148 60.2382 75.2097 60.1835C75.0046 60.1268 74.8181 60.0419 74.6501 59.9286C74.4841 59.8153 74.3513 59.6708 74.2517 59.495C74.1521 59.3192 74.1023 59.1112 74.1023 58.871H74.9841C74.9841 59.0038 75.0046 59.1161 75.0456 59.2079C75.0866 59.2997 75.1443 59.3739 75.2185 59.4305C75.2946 59.4872 75.3845 59.5282 75.488 59.5536C75.5935 59.579 75.7087 59.5917 75.8337 59.5917C75.9861 59.5917 76.1111 59.5702 76.2087 59.5272C76.3083 59.4843 76.3816 59.4247 76.4284 59.3485C76.4773 59.2723 76.5017 59.1864 76.5017 59.0907ZM79.8855 55.9413V60.2069H79.0095V55.9413H79.8855ZM81.198 55.9413V56.6298H77.7175V55.9413H81.198ZM84.5612 59.5214V60.2069H82.2907V59.5214H84.5612ZM82.5779 55.9413V60.2069H81.6989V55.9413H82.5779ZM84.2654 57.6786V58.3466H82.2907V57.6786H84.2654ZM84.5583 55.9413V56.6298H82.2907V55.9413H84.5583ZM85.0739 55.9413H86.6648C86.9909 55.9413 87.2712 55.9901 87.5056 56.0878C87.7419 56.1854 87.9236 56.33 88.0505 56.5214C88.1775 56.7128 88.2409 56.9481 88.2409 57.2274C88.2409 57.4559 88.2019 57.6522 88.1237 57.8163C88.0476 57.9784 87.9392 58.1141 87.7986 58.2235C87.6599 58.3309 87.4968 58.4169 87.3093 58.4813L87.031 58.6278H85.6482L85.6423 57.9423H86.6706C86.8249 57.9423 86.9529 57.9149 87.0544 57.8602C87.156 57.8055 87.2321 57.7294 87.2829 57.6317C87.3357 57.5341 87.362 57.4208 87.362 57.2919C87.362 57.1552 87.3366 57.037 87.2859 56.9374C87.2351 56.8378 87.1579 56.7616 87.0544 56.7089C86.9509 56.6561 86.821 56.6298 86.6648 56.6298H85.9529V60.2069H85.0739V55.9413ZM87.4587 60.2069L86.4861 58.3055L87.4148 58.2997L88.3991 60.1659V60.2069H87.4587ZM92.073 58.6864H90.9861V58.0009H92.073C92.2409 58.0009 92.3777 57.9735 92.4831 57.9188C92.5886 57.8622 92.6657 57.7841 92.7146 57.6844C92.7634 57.5848 92.7878 57.4725 92.7878 57.3475C92.7878 57.2206 92.7634 57.1024 92.7146 56.993C92.6657 56.8837 92.5886 56.7958 92.4831 56.7294C92.3777 56.663 92.2409 56.6298 92.073 56.6298H91.2907V60.2069H90.4118V55.9413H92.073C92.407 55.9413 92.6931 56.0018 92.9314 56.1229C93.1716 56.2421 93.3552 56.4071 93.4821 56.618C93.6091 56.829 93.6726 57.0702 93.6726 57.3417C93.6726 57.6171 93.6091 57.8553 93.4821 58.0565C93.3552 58.2577 93.1716 58.413 92.9314 58.5223C92.6931 58.6317 92.407 58.6864 92.073 58.6864ZM97.1413 59.5214V60.2069H94.8708V59.5214H97.1413ZM95.1579 55.9413V60.2069H94.279V55.9413H95.1579ZM96.8454 57.6786V58.3466H94.8708V57.6786H96.8454ZM97.1384 55.9413V56.6298H94.8708V55.9413H97.1384ZM99.6198 55.9413V60.2069H98.7439V55.9413H99.6198ZM100.932 55.9413V56.6298H97.4519V55.9413H100.932ZM104.296 59.5214V60.2069H102.025V59.5214H104.296ZM102.312 55.9413V60.2069H101.433V55.9413H102.312ZM104 57.6786V58.3466H102.025V57.6786H104ZM104.293 55.9413V56.6298H102.025V55.9413H104.293ZM104.808 55.9413H106.399C106.725 55.9413 107.006 55.9901 107.24 56.0878C107.476 56.1854 107.658 56.33 107.785 56.5214C107.912 56.7128 107.975 56.9481 107.975 57.2274C107.975 57.4559 107.936 57.6522 107.858 57.8163C107.782 57.9784 107.674 58.1141 107.533 58.2235C107.394 58.3309 107.231 58.4169 107.044 58.4813L106.765 58.6278H105.383L105.377 57.9423H106.405C106.559 57.9423 106.687 57.9149 106.789 57.8602C106.89 57.8055 106.967 57.7294 107.017 57.6317C107.07 57.5341 107.096 57.4208 107.096 57.2919C107.096 57.1552 107.071 57.037 107.02 56.9374C106.969 56.8378 106.892 56.7616 106.789 56.7089C106.685 56.6561 106.555 56.6298 106.399 56.6298H105.687V60.2069H104.808V55.9413ZM107.193 60.2069L106.22 58.3055L107.149 58.2997L108.134 60.1659V60.2069H107.193ZM110.873 59.0907C110.873 59.0145 110.861 58.9462 110.838 58.8856C110.816 58.8231 110.775 58.7665 110.715 58.7157C110.654 58.663 110.569 58.6112 110.46 58.5604C110.35 58.5096 110.209 58.4569 110.035 58.4022C109.842 58.3397 109.658 58.2694 109.484 58.1913C109.312 58.1132 109.16 58.0223 109.027 57.9188C108.896 57.8134 108.793 57.6913 108.717 57.5526C108.642 57.4139 108.605 57.2528 108.605 57.0692C108.605 56.8915 108.644 56.7303 108.722 56.5858C108.801 56.4393 108.91 56.3143 109.051 56.2108C109.191 56.1053 109.357 56.0243 109.549 55.9677C109.742 55.911 109.954 55.8827 110.184 55.8827C110.499 55.8827 110.773 55.9393 111.008 56.0526C111.242 56.1659 111.424 56.3212 111.552 56.5184C111.683 56.7157 111.749 56.9413 111.749 57.1952H110.876C110.876 57.0702 110.849 56.9608 110.797 56.8671C110.746 56.7714 110.668 56.6962 110.562 56.6415C110.459 56.5868 110.328 56.5594 110.17 56.5594C110.017 56.5594 109.89 56.5829 109.789 56.6298C109.687 56.6747 109.611 56.7362 109.56 56.8143C109.509 56.8905 109.484 56.9764 109.484 57.0721C109.484 57.1444 109.502 57.2098 109.537 57.2684C109.574 57.327 109.629 57.3817 109.701 57.4325C109.773 57.4833 109.862 57.5311 109.967 57.576C110.073 57.621 110.195 57.6649 110.334 57.7079C110.566 57.7782 110.77 57.8573 110.946 57.9452C111.124 58.0331 111.272 58.1317 111.391 58.2411C111.51 58.3505 111.6 58.4745 111.661 58.6132C111.721 58.7518 111.752 58.9091 111.752 59.0848C111.752 59.2704 111.716 59.4364 111.643 59.5829C111.571 59.7294 111.467 59.8534 111.33 59.955C111.193 60.0565 111.03 60.1337 110.841 60.1864C110.651 60.2391 110.439 60.2655 110.205 60.2655C109.994 60.2655 109.786 60.2382 109.581 60.1835C109.376 60.1268 109.189 60.0419 109.021 59.9286C108.855 59.8153 108.722 59.6708 108.623 59.495C108.523 59.3192 108.473 59.1112 108.473 58.871H109.355C109.355 59.0038 109.376 59.1161 109.417 59.2079C109.458 59.2997 109.515 59.3739 109.59 59.4305C109.666 59.4872 109.756 59.5282 109.859 59.5536C109.965 59.579 110.08 59.5917 110.205 59.5917C110.357 59.5917 110.482 59.5702 110.58 59.5272C110.679 59.4843 110.753 59.4247 110.8 59.3485C110.848 59.2723 110.873 59.1864 110.873 59.0907Z" fill="#AFB1B8"/>
</svg>
